<svg height="512pt" viewBox="-2 0 512 512.00123" width="512pt" xmlns="http://www.w3.org/2000/svg"><path d="m396.210938 344.980469-36.21875-36.21875v-8.789063h73.039062l-73.039062-109.554687v-25.460938h-.632813c-4.078125-49.316406-28.148437-94.65625-67.230469-125.820312-42.253906-33.691407-97.410156-46.46875-151.335937-35.050781-69.207031 14.648437-124.496094 71.367187-137.582031 141.136718-8.03125 42.804688-.925782 86.855469 20.515624 124.175782 43.332032 75.425781 66.234376 154.128906 66.234376 227.601562v15h180.023437v-48.851562l52.25 20.902343 17.027344-34.058593h39.945312l-17.601562-70.40625zm-55.429688 75.007812h-20.0625l-12.976562 25.949219-127.773438-51.105469v-94.859375h-15c-24.816406 0-45.007812-20.1875-45.007812-45.003906 0-23.597656 17.480468-42.199219 39.578124-42.199219h20.429688v-29.601562h-20.429688c-38.828124 0-69.578124 31.847656-69.578124 71.800781 0 36.222656 25.8125 66.53125 60.003906 73.5v86.675781l90.011718 36.003907v30.847656h-120.304687c-2.867187-74.304688-26.898437-152.640625-69.929687-227.542969-17.996094-31.332031-23.890626-67.191406-17.042969-103.699219 10.878906-58 56.816406-105.144531 114.308593-117.316406 45.125-9.550781 91.199219 1.074219 126.414063 29.15625 35.222656 28.089844 55.835937 69.980469 56.546875 114.933594h.019531v21.976562l46.980469 70.464844h-46.980469v51.21875l23.792969 23.792969-25.402344 25.402343zm0 0"/><path d="m149.96875 239.964844h30.003906v30.003906h-30.003906zm0 0"/><path d="m472.507812 437.117188c-3.257812 0-6.652343-2.902344-9.085937-7.765626-7.621094-15.246093-21.050781-24.351562-35.917969-24.351562-14.871094 0-28.296875 9.105469-35.921875 24.351562l26.835938 13.417969c2.429687-4.863281 5.828125-7.765625 9.085937-7.765625 3.257813 0 6.652344 2.902344 9.082032 7.765625 7.625 15.25 21.054687 24.351563 35.921874 24.351563 14.871094 0 28.296876-9.105469 35.921876-24.351563l-26.835938-13.417969c-2.433594 4.863282-5.828125 7.765626-9.085938 7.765626zm0 0"/><path d="m391.582031 369.34375 26.835938 13.417969c2.429687-4.859375 5.828125-7.761719 9.085937-7.761719 3.257813 0 6.652344 2.902344 9.082032 7.761719 7.625 15.25 21.054687 24.351562 35.921874 24.351562 14.871094 0 28.296876-9.101562 35.921876-24.351562l-26.835938-13.417969c-2.433594 4.863281-5.828125 7.765625-9.085938 7.765625-3.257812 0-6.652343-2.902344-9.085937-7.765625-7.621094-15.246094-21.050781-24.347656-35.917969-24.347656-14.871094 0-28.296875 9.101562-35.921875 24.347656zm0 0"/></svg>