<?xml version="1.0" encoding="iso-8859-1"?>
<!-- Generator: Adobe Illustrator 19.0.0, SVG Export Plug-In . SVG Version: 6.00 Build 0)  -->
<svg version="1.1" id="Capa_1" xmlns="http://www.w3.org/2000/svg" xmlns:xlink="http://www.w3.org/1999/xlink" x="0px" y="0px"
	 viewBox="0 0 512.001 512.001" style="enable-background:new 0 0 512.001 512.001;" xml:space="preserve">
<g>
	<g>
		<path d="M501.333,277.333h-10.667c0-23.531-19.135-42.667-42.667-42.667H228.404c1.285-1.376,2.73-2.503,3.93-4
			c3.115-3.896,3.115-9.438,0-13.333c-12.886-16.093-30.938-25.333-49.532-25.333H94.531c-14.926,0-29.363,6.178-41.198,16.853
			v-91.52c0-5.896-4.771-10.667-10.667-10.667h-32C4.771,106.667,0,111.438,0,117.334V352c0,5.896,4.771,10.667,10.667,10.667
			h42.667v32c0,5.896,4.771,10.667,10.667,10.667h21.333c4.042,0,7.729-2.281,9.542-5.896l18.385-36.771h296.146l18.385,36.771
			c1.813,3.615,5.5,5.896,9.542,5.896h21.333c5.885,0,10.667-4.771,10.667-10.656c0.01-15.063,0.005-24.943-0.094-32.01h32.094
			c5.896,0,10.667-4.771,10.667-10.667v-64C512,282.104,507.229,277.333,501.333,277.333z M42.667,277.333
			C42.667,265.573,52.24,256,64,256h30.531h88.271H448c11.76,0,21.333,9.573,21.333,21.333H42.667z"/>
	</g>
</g>
<g>
</g>
<g>
</g>
<g>
</g>
<g>
</g>
<g>
</g>
<g>
</g>
<g>
</g>
<g>
</g>
<g>
</g>
<g>
</g>
<g>
</g>
<g>
</g>
<g>
</g>
<g>
</g>
<g>
</g>
</svg>
