<?xml version="1.0" encoding="iso-8859-1"?>
<!-- Generator: Adobe Illustrator 19.0.0, SVG Export Plug-In . SVG Version: 6.00 Build 0)  -->
<svg version="1.1" id="Capa_1" xmlns="http://www.w3.org/2000/svg" xmlns:xlink="http://www.w3.org/1999/xlink" x="0px" y="0px"
	 viewBox="0 0 511.999 511.999" style="enable-background:new 0 0 511.999 511.999;" xml:space="preserve">
<path style="fill:#D8D7DA;" d="M507.979,263.582c-28.247,30.389-113.762,111.453-229.519,121.022
	c-79.926,6.602-174.289-20.872-274.178-122.673c-5.516-5.62-5.725-14.541-0.501-20.444
	c29.741-33.596,132.336-133.871,281.95-112.665c65.458,9.266,139.909,41.786,221.204,113.323
	C513.255,247.714,513.725,257.418,507.979,263.582z"/>
<path style="fill:#E0E0E2;" d="M507.979,263.582c-28.247,30.389-113.762,111.453-229.519,121.022
	c-64.893-9.747-136.64-44.303-211.499-120.584c-5.516-5.62-5.725-14.541-0.501-20.444
	c25.374-28.665,103.817-105.906,219.271-114.754c65.458,9.266,139.909,41.786,221.204,113.323
	C513.255,247.714,513.725,257.418,507.979,263.582z"/>
<path style="fill:#3E3D42;" d="M341.964,349.65c-14.583,13.371-32.488,23.515-52.901,29.01
	c-67.902,18.26-137.747-21.99-156.007-89.881c-17.143-63.744,17.278-129.191,77.722-152.069c3.938-1.504,8.002-2.821,12.16-3.938
	c67.902-18.26,137.747,21.99,156.007,89.881C391.71,270.142,375.863,318.582,341.964,349.65z"/>
<path style="fill:#57565C;" d="M341.964,349.65c-3.938,1.504-8.002,2.821-12.16,3.938c-67.902,18.26-137.747-21.99-156.007-89.881
	c-12.766-47.49,3.082-95.93,36.98-126.998c3.938-1.504,8.002-2.821,12.16-3.938c67.902-18.26,137.747,21.99,156.007,89.881
	C391.71,270.142,375.863,318.582,341.964,349.65z"/>
<path style="fill:#1D1D1F;" d="M295.791,264.428c-1.212,5.631-3.656,11.084-7.375,15.962c-13.633,17.905-39.195,21.373-57.09,7.741
	c-17.905-13.633-21.373-39.195-7.741-57.09c6.393-8.389,15.398-13.612,25.009-15.377c10.906-2.027,22.575,0.397,32.081,7.636
	C293.691,233.214,299.081,249.437,295.791,264.428z"/>
<circle style="fill:#E0E0E2;" cx="310.991" cy="192.57" r="22.926"/>
<g>
	<path style="fill:#898890;" d="M256,16.67c-4.327,0-7.835,3.508-7.835,7.835v51.708c0,4.327,3.508,7.835,7.835,7.835
		c4.327,0,7.835-3.508,7.835-7.835V24.505C263.835,20.178,260.327,16.67,256,16.67z"/>
	<path style="fill:#898890;" d="M143.801,42.592c-1.481-4.067-5.976-6.162-10.042-4.683c-4.067,1.48-6.162,5.976-4.683,10.042
		L146.76,96.54c1.159,3.182,4.163,5.157,7.363,5.157c0.89,0,1.795-0.153,2.678-0.474c4.067-1.48,6.162-5.976,4.683-10.042
		L143.801,42.592z"/>
	<path style="fill:#898890;" d="M30.924,92.285c-2.782-3.315-7.724-3.747-11.038-0.965c-3.315,2.781-3.747,7.723-0.965,11.038
		l33.236,39.61c1.549,1.847,3.769,2.799,6.006,2.799c1.777,0,3.564-0.602,5.032-1.833c3.315-2.781,3.747-7.723,0.965-11.038
		L30.924,92.285z"/>
	<path style="fill:#898890;" d="M446.297,147.217c1.468,1.232,3.255,1.833,5.032,1.833c2.236,0,4.456-0.952,6.006-2.799
		l33.236-39.61c2.782-3.315,2.349-8.257-0.965-11.038c-3.315-2.782-8.256-2.35-11.038,0.965l-33.236,39.61
		C442.55,139.493,442.982,144.436,446.297,147.217z"/>
	<path style="fill:#898890;" d="M378.133,38.521c-4.066-1.481-8.563,0.617-10.042,4.683l-17.684,48.589
		c-1.48,4.066,0.616,8.562,4.683,10.042c0.885,0.322,1.789,0.474,2.678,0.474c3.2,0,6.205-1.975,7.363-5.157l17.685-48.59
		C384.296,44.496,382.2,40.001,378.133,38.521z"/>
	<path style="fill:#898890;" d="M253.492,427.952c-4.327,0-7.835,3.508-7.835,7.835v51.708c0,4.327,3.508,7.835,7.835,7.835
		c4.327,0,7.835-3.508,7.835-7.835v-51.708C261.327,431.46,257.819,427.952,253.492,427.952z"/>
	<path style="fill:#898890;" d="M362.732,415.459c-1.48-4.067-5.979-6.163-10.042-4.683c-4.067,1.48-6.162,5.976-4.683,10.042
		l17.685,48.59c1.159,3.182,4.162,5.157,7.363,5.157c0.89,0,1.795-0.153,2.678-0.474c4.067-1.48,6.162-5.976,4.683-10.042
		L362.732,415.459z"/>
	<path style="fill:#898890;" d="M457.335,370.031c-2.782-3.315-7.724-3.747-11.038-0.965c-3.315,2.781-3.747,7.723-0.965,11.038
		l33.236,39.61c1.549,1.847,3.769,2.799,6.006,2.799c1.777,0,3.564-0.602,5.032-1.833c3.315-2.781,3.747-7.723,0.965-11.038
		L457.335,370.031z"/>
	<path style="fill:#898890;" d="M63.195,364.782c-3.315-2.782-8.257-2.35-11.038,0.965l-33.236,39.61
		c-2.782,3.315-2.349,8.257,0.965,11.038c1.468,1.232,3.255,1.833,5.032,1.833c2.236,0,4.456-0.952,6.006-2.799l33.236-39.61
		C66.942,372.505,66.511,367.563,63.195,364.782z"/>
	<path style="fill:#898890;" d="M154.403,410.163c-4.065-1.48-8.562,0.617-10.042,4.683l-17.685,48.589
		c-1.48,4.066,0.616,8.562,4.683,10.042c0.885,0.322,1.788,0.474,2.678,0.474c3.2,0,6.205-1.976,7.363-5.157l17.685-48.589
		C160.567,416.14,158.47,411.644,154.403,410.163z"/>
</g>
<g>
</g>
<g>
</g>
<g>
</g>
<g>
</g>
<g>
</g>
<g>
</g>
<g>
</g>
<g>
</g>
<g>
</g>
<g>
</g>
<g>
</g>
<g>
</g>
<g>
</g>
<g>
</g>
<g>
</g>
</svg>
